<svg xmlns="http://www.w3.org/2000/svg" xmlns:xlink="http://www.w3.org/1999/xlink" width="689.986" height="499.544" viewBox="0 0 689.986 499.544"><defs><style>.a{fill:none;}.b{fill:url(#a);}.c{clip-path:url(#b);}.d{fill:#045a7d;}.e{fill:#fff;}.f{fill:#0a0a0a;}.g{fill:#1a1a1a;}.h{clip-path:url(#d);}.i{fill:#2e75b3;}.j{fill:#00496a;}.k{fill:#4f4c9a;}.l{fill:#0086b9;}</style><linearGradient id="a" x1="0.5" x2="0.5" y2="1" gradientUnits="objectBoundingBox"><stop offset="0" stop-color="#0096c4"/><stop offset="1" stop-color="#0a2747"/></linearGradient><clipPath id="b"><rect class="a" width="689.986" height="499.545"/></clipPath><clipPath id="d"><path class="b" d="M81.157,29.96c-16.225,5.49-32.781,11.676-46.2,22.318,10.339,12.949,20.885,25.453,31.224,38.4-.5,13.756-1.412,27.888-1.911,41.644,0,0-38.668,108.938-61.536,232.534l40.856-.543-.567,5.773,41.975-.058.586-5.172,39.361-.543-.426,5.715,50-.252-.16-4.562,20.7-.359L175.316,133.313c-.368-16.948-.083-33.978-.451-50.928,10.546-9.536,21.114-19.148,31.662-28.684a151.01,151.01,0,0,0-49.736-25.29c-8.486-2.553-17.055-5.088-25.541-7.641a13.543,13.543,0,0,1-10.7,4.8,13.415,13.415,0,0,1-10.315-5.441L81.157,29.96" transform="translate(-2.731 -20.126)"/></clipPath></defs><g class="c"><path class="d" d="M167.956,239.132c-6.336-47.26-5.028-95.633,7.517-141.635,4.114-15.082,8.531-30.742,18.895-42.442,8.156-9.209,20.053-13.347,31.617-17.543l22.257-8.077a15.905,15.905,0,0,0,21.1-1.38c8.291,2.131,16.379,4.472,24.67,6.6,18.516,4.759,37.392,12.677,48.7,28.091,30.95,42.189,23.759,101.622,27.986,153.776" transform="translate(144.117 24.617)"/><path class="e" d="M221.378,42.915a6.858,6.858,0,0,0,4.132-3.2c-1.793-2.508-3.881-5.049-5.674-7.557l-5.013,7.885a5.99,5.99,0,0,0,3.552,2.771l-8.743,63.8s11.374,16.8,11.011,15.887,9.782-16.445,9.782-16.445Z" transform="translate(183.947 28.222)"/><path class="f" d="M216.674,47.873a.25.25,0,0,1-.193-.091c-2.057-2.489-4.239-5.015-6.348-7.458s-4.273-4.948-6.324-7.429a.25.25,0,1,1,.385-.319c2.048,2.477,4.218,4.99,6.318,7.42,2.036,2.358,4.139,4.793,6.134,7.2l7.882-12.6a.25.25,0,0,1,.4-.029c1.588,1.883,3.208,3.846,4.775,5.744,1.488,1.8,3.024,3.663,4.534,5.458,1.46-2.748,2.943-5.408,4.379-7.985,1.492-2.676,3.034-5.443,4.547-8.3a.25.25,0,0,1,.442.234c-1.515,2.864-3.059,5.633-4.552,8.311s-3.035,5.443-4.548,8.3a.25.25,0,0,1-.412.044c-1.588-1.883-3.209-3.846-4.776-5.745-1.493-1.809-3.035-3.677-4.55-5.477l-7.884,12.6a.25.25,0,0,1-.2.117Z" transform="translate(179.005 25.974)"/><path class="f" d="M191.344,130.871a.25.25,0,0,1-.213-.12c-.773-1.262-1.593-2.559-2.386-3.812s-1.614-2.553-2.389-3.818a.25.25,0,0,1-.036-.149q1.316-17.973,2.632-35.944,1.3-17.691,2.591-35.383a.25.25,0,1,1,.5.037q-1.3,17.692-2.591,35.383-1.313,17.931-2.626,35.864c.76,1.24,1.565,2.512,2.343,3.743.794,1.255,1.615,2.553,2.389,3.819a.25.25,0,0,1-.213.381Z" transform="translate(163.709 45.334)"/><path class="f" d="M190.925,60.677a.25.25,0,0,1-.2-.1l-4.649-6.5-.039-.054a.25.25,0,0,1,.407-.291l.039.054,4.649,6.5a.25.25,0,0,1-.2.4Z" transform="translate(163.418 47.269)"/><path class="f" d="M243.868,61.048a.25.25,0,0,1-.249-.235L242.9,48.589a.25.25,0,1,1,.5-.029l.715,12.224a.25.25,0,0,1-.235.264Z" transform="translate(213.36 42.622)"/><path class="f" d="M183.539,237.5c.657,17.391,1.564,35.045,2.221,52.436l52.085.663q.729-23.94,1.457-47.885c-18.29-2.379-37.352-4.065-55.763-5.214" transform="translate(161.05 208.402)"/><path class="f" d="M198.824,265.808a.25.25,0,0,1-.034-.5q12.036-1.677,24.072-3.349l.35-.049a.25.25,0,0,1,.069.5l-.35.049q-12.036,1.674-24.072,3.349Z" transform="translate(174.462 230.038)"/><path class="f" d="M296.26,280.456a13.636,13.636,0,0,1-6.382-7.38,34.424,34.424,0,0,1-1.956-9.754,164.85,164.85,0,0,1-.225-25.817c-21.345,1.954-42.384,3.586-63.729,5.539q.155,23.608.308,47.218l79.614-.988c-.1-3.973-4.052-7.091-7.63-8.819" transform="translate(196.526 208.404)"/><path class="f" d="M276.99,263.988h0q-25.644-.334-51.286-.671l-1.549-.02a.25.25,0,0,1,.007-.5l1.549.02q25.644.336,51.286.671a.25.25,0,0,1,0,.5Z" transform="translate(196.689 230.816)"/><path class="e" d="M195.987,149.705,193.5,35.226l5.987-2.536,3.907,118.324Z" transform="translate(169.787 28.685)"/><path class="e" d="M234.952,31.22l-1.164,126.818h7.838l-1-125.043Z" transform="translate(205.142 27.394)"/><path class="b" d="M338.935,123.234c4.271,83.012,4.459,166.252-1.423,249.165-23.617,1.115-46.1,3.787-69.712,4.9-3.1-60.6-5.621-121.2-8.717-181.8-2.255,60.455-3.815,119.037-6.07,179.492-20.245-1.153-39.493-2.217-59.737-3.37-20.727-61.052-41.021-194.634,10.679-278.23,38.167,2,76.043,3.246,114.21,5.244,6.263,6.793,14.507,17.806,20.771,24.6" transform="translate(150.344 81.949)"/><path class="f" d="M202.833,92.585a.25.25,0,0,1,.248.223,4.65,4.65,0,0,1-4.359,4.946h-.078a4.655,4.655,0,0,1-4.476-4.769.25.25,0,0,1,.245-.233l8.415-.167Zm-4.188,4.67h.068a3.955,3.955,0,0,0,2.844-1.4A4,4,0,0,0,202.6,93.09l-7.941.158a4.175,4.175,0,0,0,3.984,4.008Z" transform="translate(170.589 81.46)"/><path class="f" d="M84.451,2.91h-.008L-.008.25A.25.25,0,0,1-.25-.008.25.25,0,0,1,.008-.25l84.451,2.66a.25.25,0,0,1-.008.5Z" transform="translate(354.48 181.496)"/><path class="f" d="M219.886,171.42a.25.25,0,0,1-.25-.244q-.525-20.4-1.046-40.806c-.34-.232-.828-.591-1.3-.938-.51-.374-1.037-.76-1.359-.975a.25.25,0,1,1,.278-.416c.332.221.863.611,1.377.988s1.063.779,1.392,1a.25.25,0,0,1,.112.2q.524,20.468,1.049,40.934a.25.25,0,0,1-.243.256Z" transform="translate(189.593 112.535)"/><path class="f" d="M186.939,126.522a.25.25,0,0,1-.223-.363L201.591,96.78a.25.25,0,1,1,.446.226l-14.875,29.379A.25.25,0,0,1,186.939,126.522Z" transform="translate(164.034 85.021)"/><path class="f" d="M222.57,240.579a.25.25,0,0,1-.016-.5l4.125-.264q32.284-2.067,64.569-4.137a.25.25,0,0,1,.032.5q-32.284,2.07-64.569,4.137l-4.125.264Z" transform="translate(195.299 207.02)"/><path class="f" d="M241.471,238.581h-.01L211.9,237.459l-28.561-1.084a.25.25,0,0,1,.019-.5l28.561,1.084,29.558,1.122a.25.25,0,0,1-.009.5Z" transform="translate(160.886 207.193)"/><path class="f" d="M232.3,11.95a.25.25,0,0,1-.143-.045,29.986,29.986,0,0,0-26.836-4.08.25.25,0,1,1-.159-.474A29.565,29.565,0,0,1,212.1,5.916a30.132,30.132,0,0,1,7.04.24,31.143,31.143,0,0,1,6.869,1.873,32.389,32.389,0,0,1,6.151,3.273c.164-.524.334-1.075.5-1.61.2-.647.406-1.316.6-1.934a.25.25,0,0,1,.477.151c-.195.617-.4,1.285-.6,1.93s-.406,1.317-.6,1.935a.25.25,0,0,1-.238.175Z" transform="translate(180.093 5.319)"/><path class="f" d="M219.817,10.156a.25.25,0,0,1-.121-.469l1.529-.84L222.761,8a.25.25,0,0,1,.241.438l-1.535.843-1.529.839A.249.249,0,0,1,219.817,10.156Z" transform="translate(192.883 7.216)"/><path class="f" d="M241.341,19.287a10.15,10.15,0,0,0-2.681-6.353,13.759,13.759,0,0,0-5.775-3.571,42.524,42.524,0,0,0-25.325-.685,8.544,8.544,0,0,0-3.042,1.365,3.355,3.355,0,0,0-1.38,2.9c.131,1.111,1.277,2.655,2.375,2.441a3.809,3.809,0,0,0,4.341,6.049l31.128,7.435c.143-3.025.507-6.554.359-9.579" transform="translate(178.233 6.207)"/><path class="e" d="M234.851,42.428c-.1-2.7-.2-5.4-.3-8.1a8.107,8.107,0,0,0,7.925-2.816,6.63,6.63,0,0,0,.068-7.8,8.092,8.092,0,0,0-7.874-2.933,4.989,4.989,0,0,1-4.6-1.829,5.616,5.616,0,0,1-1.16-4.883,76.292,76.292,0,0,0-19.469-1.183,15.281,15.281,0,0,0-3.922,5.726c-1.006,2.873-.661,5.916-.982,8.946a12.068,12.068,0,0,0,1.284,7.5,10.519,10.519,0,0,0,6.008,4.628c.049,1.541.321,3.015.37,4.557a16.314,16.314,0,0,0,11.843,4,15.759,15.759,0,0,0,10.812-5.818" transform="translate(179.383 11.135)"/><path class="f" d="M209.613,19.633a1.284,1.284,0,1,0-1.284,1.284,1.284,1.284,0,0,0,1.284-1.284" transform="translate(181.676 16.101)"/><path class="f" d="M218.069,20.023a1.284,1.284,0,1,0-1.284,1.284,1.284,1.284,0,0,0,1.284-1.284" transform="translate(189.096 16.443)"/><path class="f" d="M210.784,24.278a.25.25,0,0,1-.244-.3q.6-2.732,1.205-5.467a.25.25,0,1,1,.488.108q-.563,2.556-1.127,5.11l.58-.091.942-.147a.25.25,0,0,1,.077.494l-.941.147-.942.147A.25.25,0,0,1,210.784,24.278Z" transform="translate(184.957 16.287)"/><path class="f" d="M213.631,24.007a1.556,1.556,0,0,1-1.511-1.472.25.25,0,0,1,.5-.01,1,1,0,0,0,.347.711,1,1,0,0,0,1.639-.878.25.25,0,0,1,.494-.076A1.549,1.549,0,0,1,213.746,24Q213.689,24.007,213.631,24.007Z" transform="translate(186.349 19.585)"/><path class="f" d="M206.229,16.972a.25.25,0,0,1-.228-.353,3.774,3.774,0,0,1,6.792-.177.25.25,0,1,1-.444.229,3.274,3.274,0,0,0-5.892.154A.25.25,0,0,1,206.229,16.972Z" transform="translate(180.96 12.855)"/><path class="f" d="M218.857,15h0l-2.42-.021-2.422-.021a.25.25,0,0,1,0-.5l2.422.021,2.42.021a.25.25,0,0,1,0,.5Z" transform="translate(187.792 12.91)"/><path class="f" d="M4.3-.25A4.553,4.553,0,1,1-.25,4.3,4.558,4.558,0,0,1,4.3-.25Zm0,8.606A4.053,4.053,0,1,0,.25,4.3,4.058,4.058,0,0,0,4.3,8.356Z" transform="translate(400.756 32.799) rotate(-9.217)"/><path class="f" d="M4.3-.25A4.553,4.553,0,1,1-.25,4.3,4.558,4.558,0,0,1,4.3-.25Zm0,8.606A4.053,4.053,0,1,0,.25,4.3,4.058,4.058,0,0,0,4.3,8.356Z" transform="translate(384.125 31.81) rotate(-9.217)"/><path class="f" d="M217.493,19.7a.25.25,0,0,1-.227-.144,4.323,4.323,0,0,0-7.431-.676.25.25,0,0,1-.407-.29,4.823,4.823,0,0,1,8.291.754.25.25,0,0,1-.226.356Z" transform="translate(183.946 14.76)"/><path class="f" d="M221.356,20.836a.25.25,0,0,1-.067-.491l2.292-.639,1.642-.458a.25.25,0,0,1,.134.482l-1.642.458-2.291.639A.25.25,0,0,1,221.356,20.836Z" transform="translate(194.234 17.101)"/><path class="f" d="M215.545,29.368a21.61,21.61,0,0,1-7.509-1.333.25.25,0,0,1,.175-.468,21.386,21.386,0,0,0,16.834-.931.25.25,0,0,1,.225.446,21.692,21.692,0,0,1-8.519,2.254Q216.149,29.368,215.545,29.368Z" transform="translate(182.622 23.567)"/><path class="f" d="M221.518,24.721a.252.252,0,0,1-.04,0q-.937-.152-1.875-.3a.25.25,0,0,1,.079-.494q.938.149,1.876.3a.25.25,0,0,1-.04.5Z" transform="translate(192.73 21.208)"/><path class="e" d="M123.086,38.318c-11.212,10.578-22.892,20.7-34.1,31.282a200.369,200.369,0,0,0,15.057,35.6l32.148-41.079-13.1-25.808" transform="translate(78.079 33.623)"/><path class="e" d="M3.876,73.111C15.1,55.639,32.108,41.276,40.693,35.828L68.429,74.617,42.58,99.39Z" transform="translate(3.401 31.438)"/><path class="f" d="M60.477,13.165c.458,3.471-1.791,6.7-4.228,9.215s-5.272,4.859-6.5,8.135" transform="translate(43.65 11.552)"/><path class="f" d="M57.3,3.93q1.107.628,2.214,1.254a2.788,2.788,0,0,1-.3-3.363" transform="translate(50.28 1.599)"/><path class="f" d="M93.4,12.45a5.429,5.429,0,0,0,1.288-4.187c-.184-1.493-1.065-2.184-2.174-3.2A20.151,20.151,0,0,0,70.662,1.887,20.149,20.149,0,0,0,59.656,21.032c.3,4.042.079,8.413-1.913,11.944-1.41,2.5-3.421,4.609-4.992,7.01S50.031,45.3,50.665,48.1l49.913-1.2C98.139,35.532,95.839,23.827,93.4,12.45" transform="translate(44.301 0)"/><path class="e" d="M58.96,175.7c-4.913,47.237-2.544,94.191,3.731,141.717l54.892,4.41c4.436-44.611,9.5-89.238,13.936-133.847-24.353-4.014-48.206-8.268-72.559-12.281" transform="translate(49.425 154.174)"/><path class="g" d="M118.031,322.367l-55.783-4.482-.053-.4c-3.358-25.438-5.342-48.668-6.065-71.016-.389-12.02-.4-23.928-.042-35.394.377-11.979,1.176-23.9,2.375-35.424l.055-.528.524.086c12.213,2.012,24.5,4.12,36.387,6.158,11.815,2.026,24.032,4.122,36.172,6.122l.463.076-.046.467c-2.218,22.3-4.633,44.984-6.968,66.917s-4.75,44.623-6.969,66.93Zm-54.9-5.414,54,4.339c2.205-22.153,4.6-44.668,6.921-66.448s4.715-44.294,6.92-66.444c-11.99-1.978-24.049-4.046-35.715-6.047-11.713-2.009-23.819-4.085-35.857-6.071C55.042,218.689,56.262,264.72,63.133,316.953Z" transform="translate(49.425 154.174)"/><path class="f" d="M128.338,277.214a28.548,28.548,0,0,1-9.215-15.863c-1.213-6.107-.753-13.041,2.033-18.609-21.352.047-42.375.625-63.727.672q2.1,20.693,4.207,41.383l75.506.37c-1.684-3.714-5.724-5.281-8.805-7.953" transform="translate(50.393 212.999)"/><path class="e" d="M74.5,271.353a.25.25,0,0,1-.248-.217A14.678,14.678,0,0,0,58.9,258.4a.25.25,0,0,1-.027-.5,15.178,15.178,0,0,1,15.876,13.173.25.25,0,0,1-.215.281Z" transform="translate(51.669 226.498)"/><path class="e" d="M79.882,250.444a.25.25,0,0,1-.01-.5l16.728-.693a.25.25,0,0,1,.021.5l-16.728.693Z" transform="translate(70.094 218.93)"/><path class="e" d="M80,252.7a.25.25,0,0,1-.006-.5q7.705-.191,15.41-.385a.25.25,0,1,1,.013.5q-7.705.194-15.41.385Z" transform="translate(70.196 221.183)"/><path class="e" d="M80.582,255.472a.25.25,0,0,1-.007-.5l7.927-.212,7.928-.212a.25.25,0,1,1,.013.5l-7.928.212-7.927.212Z" transform="translate(70.708 223.578)"/><path class="e" d="M24.623,175.455a675.679,675.679,0,0,0-13.837,131.17l58.489,6.237c9.812-44,19.381-89.013,29.193-133.011-24.662-1.331-49.182-3.062-73.845-4.4" transform="translate(9.464 153.957)"/><path class="g" d="M69.666,313.406l-59.383-6.332,0-.453A677.181,677.181,0,0,1,24.133,175.354l.087-.422.43.023c12.3.665,24.778,1.442,36.841,2.193,12.117.755,24.646,1.535,37,2.2l.59.032-.129.576c-4.908,22.007-9.836,44.641-14.6,66.53-4.762,21.872-9.687,44.489-14.591,66.482Zm-58.376-7.231,57.595,6.142c4.872-21.853,9.762-44.314,14.493-66.041,4.725-21.7,9.609-44.13,14.474-65.958-12.171-.66-24.5-1.428-36.423-2.171s-24.242-1.51-36.4-2.169A676.216,676.216,0,0,0,11.289,306.175Z" transform="translate(9.464 153.957)"/><path class="f" d="M77.1,276.832c-6.109-8.987-6.866-22.5-2.058-32.244-21.861-1.825-43.272-3.3-65.133-5.129q.651,24.881,1.3,49.762l76.015-.111c-1.6-4.88-7.24-8.032-10.123-12.279" transform="translate(8.691 210.118)"/><path class="e" d="M22.307,271.825a.25.25,0,0,1-.25-.241,13.991,13.991,0,0,0-11.506-13.273.25.25,0,1,1,.089-.492,14.491,14.491,0,0,1,11.917,13.747.25.25,0,0,1-.241.259Z" transform="translate(9.297 226.445)"/><path class="e" d="M47.31,249.654H47.3l-10.139-.573-9.466-.535a.25.25,0,0,1,.028-.5l9.466.535,10.139.573a.25.25,0,0,1-.014.5Z" transform="translate(24.31 217.873)"/><path class="e" d="M46.639,252.012h-.007l-9.389-.244L27.7,251.52a.25.25,0,1,1,.013-.5l9.541.248,9.389.244a.25.25,0,0,1-.006.5Z" transform="translate(24.313 220.482)"/><path class="e" d="M27.589,255a.25.25,0,0,1-.006-.5l9.8-.224,9.8-.224a.25.25,0,0,1,.011.5l-9.8.224-9.8.224Z" transform="translate(24.209 223.143)"/></g><g transform="translate(5.127 37.786)"><g class="h"><rect class="b" width="391.566" height="391.566" transform="translate(-174.981 174.981) rotate(-45)"/></g></g><g class="c"><path class="f" d="M37.254,65.39a.25.25,0,0,1-.249-.231q-.3-3.929-.6-7.859-.3-3.911-.6-7.822a.25.25,0,0,1,.5-.038q.3,3.911.6,7.822.3,3.929.6,7.859a.25.25,0,0,1-.23.268Z" transform="translate(31.634 43.399)"/><path class="f" d="M75.012,34.766a23.371,23.371,0,0,1-11.9-3.341,23.363,23.363,0,0,1-8.678-8.916.25.25,0,1,1,.44-.238,23.47,23.47,0,0,0,20.137,12H75.1A23.461,23.461,0,0,0,95.221,22.1a.25.25,0,1,1,.442.234,23.359,23.359,0,0,1-8.6,8.988A23.359,23.359,0,0,1,75.1,34.766Z" transform="translate(47.961 19.499)"/><path class="f" d="M70.236,47.706c-.822,0-1.658-.024-2.471-.048-1.019-.029-2.074-.06-3.086-.042a.25.25,0,0,1-.254-.238L63.5,28.718a.25.25,0,0,1,.5-.025l.912,18.419c.949-.01,1.923.018,2.867.046s1.91.055,2.85.045c.112-3,.147-6.031.181-8.963.035-3.013.071-6.128.191-9.214a.25.25,0,1,1,.5.019c-.119,3.079-.155,6.191-.19,9.2s-.071,6.128-.191,9.214a.25.25,0,0,1-.245.24Q70.558,47.706,70.236,47.706Z" transform="translate(55.94 25.189)"/><path class="f" d="M94.617,59.706a.25.25,0,0,1-.25-.247L94.2,46.912a.25.25,0,0,1,.5-.007l.163,12.547a.25.25,0,0,1-.247.253Z" transform="translate(82.881 41.161)"/><path class="f" d="M144.035,80.821h0l-53.921-.134-54.054-.134a.25.25,0,0,1,0-.5l54.054.134,53.921.134a.25.25,0,0,1,0,.5Z" transform="translate(31.642 70.464)"/><path class="f" d="M0,135.529a.252.252,0,0,1-.04,0,.25.25,0,0,1-.207-.286L21.474-.04a.25.25,0,0,1,.286-.207.25.25,0,0,1,.207.286L.247,135.319A.25.25,0,0,1,0,135.529Z" transform="translate(45.982 246.696)"/><path class="f" d="M0,136.072H-.024a.25.25,0,0,1-.225-.273L12.664-.024a.25.25,0,0,1,.273-.225.25.25,0,0,1,.225.273L.249,135.846A.25.25,0,0,1,0,136.072Z" transform="translate(87.975 246.696)"/><path class="f" d="M0,135.529H-.017a.25.25,0,0,1-.232-.267L9.14-.017a.25.25,0,0,1,.267-.232.25.25,0,0,1,.232.267L.249,135.3A.25.25,0,0,1,0,135.529Z" transform="translate(127.338 246.696)"/><path class="f" d="M0,136.431H0a.25.25,0,0,1-.248-.252L.97,0A.25.25,0,0,1,1.223-.25.25.25,0,0,1,1.47,0L.25,136.183A.25.25,0,0,1,0,136.431Z" transform="translate(176.749 246.697)"/><path class="e" d="M43.555,63.453c12.551,13.03,27.351,26.164,31.784,43.7,2.722,10.765,5.385,21.792,8.107,32.559A105.462,105.462,0,0,1,57.467,162c-6.273.071-12.485-.118-18.76-.047a2.893,2.893,0,0,1,1.025-2.747,8.519,8.519,0,0,1,2.709-1.436c1.588-.61,3.207-1.466,4.8-2.076-2.311-1.6-4.455-2.878-6.766-4.474a2.461,2.461,0,0,1,1.823-2.345,7.2,7.2,0,0,1,3.179-.053c1.633.22,3.584.559,5.216.777q-5.663-10.29-11.331-20.581s-19.7-12.279-32.08-25.487-6.6-34.069,0-44.111,29.959-12.609,36.277,4.029" transform="translate(0 45.125)"/><path class="f" d="M36.444,71.5a.249.249,0,0,1-.178-.075l-4.416-4.484q-4.429-4.5-8.857-8.992a.25.25,0,0,1,.356-.351q4.429,4.5,8.858,8.992l4.416,4.484a.25.25,0,0,1-.178.425Z" transform="translate(20.331 50.697)"/><path class="f" d="M24.891,110.917a.25.25,0,0,1-.039-.5l6.9-1.095c-.624-1.032-1.285-2.074-1.925-3.084-.7-1.108-1.429-2.254-2.106-3.385a.25.25,0,0,1,.429-.257c.675,1.126,1.4,2.269,2.1,3.375s1.44,2.271,2.123,3.413a.25.25,0,0,1-.175.375q-3.63.574-7.264,1.153A.252.252,0,0,1,24.891,110.917Z" transform="translate(21.841 90.14)"/><path class="f" d="M21.58,94.68a.25.25,0,0,1-.24-.181l-.181-.633q-.405-1.418-.809-2.835a.25.25,0,0,1,.481-.137q.4,1.418.808,2.835l.181.633a.25.25,0,0,1-.241.319Z" transform="translate(18.068 79.817)"/><path class="e" d="M90.633,39.188c-1.494-.528-2.779-1.016-4.273-1.541.047-1.872.03-3.828.077-5.7a12.852,12.852,0,0,0,7.977-10.335A20.925,20.925,0,0,0,90.758,7.6a11.616,11.616,0,0,0-7.523-4.883,2.864,2.864,0,0,1-2.161,2.923,8.988,8.988,0,0,1-3.937-.013,7.31,7.31,0,0,0-3.915.192,6.063,6.063,0,0,0-2.97,3.663,41.175,41.175,0,0,1-1.594,4.575c-.734,1.44-2.2,3.03-3.819,3.118-.441-.826-1.222-1.44-1.662-2.264a7.389,7.389,0,0,0-7.767,3.331,7.386,7.386,0,0,0,.768,8.415,7.388,7.388,0,0,0,8.242,1.868c-.066,2.972-.026,5.985-.092,8.957-1.433.321-3.019.954-4.453,1.277a18.182,18.182,0,0,0,15.232,9.562c6.273.176,12.307-3.744,15.525-9.13" transform="translate(47.771 2.381)"/><path class="f" d="M61.069,12.854l-.037,0-2.39-.356-2.39-.356a.25.25,0,0,1,.073-.495l2.39.356,2.39.356a.25.25,0,0,1-.036.5Z" transform="translate(49.392 10.435)"/><path class="f" d="M70.363,20.593a17.448,17.448,0,0,1-6.314-1.157.25.25,0,1,1,.182-.466,17.349,17.349,0,0,0,14.135-.825.25.25,0,0,1,.236.441A17.543,17.543,0,0,1,70.363,20.593Z" transform="translate(56.281 16.115)"/><path class="f" d="M64.533,11.551a.25.25,0,0,1-.247-.292,2.832,2.832,0,0,1,5.556-.13.25.25,0,0,1-.488.108,2.331,2.331,0,0,0-4.575.107A.25.25,0,0,1,64.533,11.551Z" transform="translate(56.626 8.035)"/><path class="f" d="M71.654,10.938a.25.25,0,0,1-.246-.2,2.462,2.462,0,0,1,4.426-1.874.25.25,0,1,1-.407.29A1.962,1.962,0,0,0,71.9,10.643a.25.25,0,0,1-.246.3Z" transform="translate(62.846 7.097)"/><path class="f" d="M71.391,14.963h-.027l-1.032-.113-1.144-.125a.25.25,0,1,1,.054-.5l1.145.125.657.072q-.758-2.546-1.519-5.093A.25.25,0,0,1,70,9.187q.814,2.726,1.626,5.454a.25.25,0,0,1-.24.321Z" transform="translate(60.734 8.125)"/><path class="f" d="M68.072,15.02a1.965,1.965,0,0,1-.767-.152,2.138,2.138,0,0,1-1.192-2.455.25.25,0,1,1,.482.131,1.573,1.573,0,0,0,2.871,1.215.25.25,0,1,1,.43.255A2.14,2.14,0,0,1,68.072,15.02Z" transform="translate(58.174 10.95)"/><path class="f" d="M63.769,8.135a.25.25,0,0,1-.2-.4,6.638,6.638,0,0,1,7.449-2.156.25.25,0,1,1-.177.468,6.146,6.146,0,0,0-6.872,1.989A.25.25,0,0,1,63.769,8.135Z" transform="translate(55.955 4.771)"/><path class="f" d="M71.209,5.995a.25.25,0,0,1-.055-.494L75.66,4.481a.25.25,0,1,1,.11.488L71.264,5.988A.251.251,0,0,1,71.209,5.995Z" transform="translate(62.484 4.146)"/><path class="e" d="M223.628,188.126a89.793,89.793,0,0,1,6.256,55c-3.055,1.945-6.081,4.4-9.643,5.058A82.624,82.624,0,0,1,201.82,249.2a1.757,1.757,0,0,1,.188-1.949,5.157,5.157,0,0,1,1.63-1.275c2.407-1.408,5.644-2.754,8.052-4.162-1.429-3.806-2.643-8.126-4.072-11.931q-1.715,5.413-3.43,10.829a8.385,8.385,0,0,1-1.4,2.98,2.842,2.842,0,0,1-2.9,1.123c-2.715-11.971-3.379-20.3-2.6-28.472L155.519,120.53c-4.271-9.8-4.294-21.606-4.016-32.291s3.118-21.578,9.735-29.972S194.206,72.211,197,85.019c7.44,34.142,19.717,62.873,26.63,103.107" transform="translate(132.853 49.515)"/><path class="f" d="M181.38,155.036a.25.25,0,0,1-.244-.306q.566-2.479,1.131-4.958.574-2.516,1.148-5.032a.25.25,0,1,1,.487.111q-.575,2.517-1.148,5.032-.565,2.479-1.131,4.958A.25.25,0,0,1,181.38,155.036Z" transform="translate(159.156 127.054)"/><path class="f" d="M188.634,163.908h0a.25.25,0,0,1-.246-.254q.093-6.114.19-12.226a.25.25,0,1,1,.5.008q-.1,6.114-.19,12.226A.25.25,0,0,1,188.634,163.908Z" transform="translate(165.521 132.877)"/><path class="f" d="M191.281,162.335h-.012a.25.25,0,0,1-.238-.261q.268-5.694.531-11.392a.25.25,0,0,1,.5.023q-.265,5.7-.531,11.393A.25.25,0,0,1,191.281,162.335Z" transform="translate(167.844 132.229)"/><path class="f" d="M193.045,161.039h-.013a.25.25,0,0,1-.237-.263q.139-2.679.279-5.357.143-2.739.286-5.478a.25.25,0,1,1,.5.026q-.142,2.739-.286,5.478-.14,2.678-.279,5.357A.25.25,0,0,1,193.045,161.039Z" transform="translate(169.391 131.58)"/><path class="i" d="M260.413,101.779c-3.958-8.875-8.064-17.8-14.06-25.445-7.831-9.986-19.227-16.274-30.89-21.274-9.085-3.894-18.059-7.69-27.146-11.586a11.923,11.923,0,0,1-19.152-1.5q-15.106,5.2-30.214,10.394c-21.57,7.422-39.4,24.6-48.373,45.572l32.03,6.35,2.024,51.293,104.969,4.3c-.285-10.786-.355-21.5-.64-32.283a13.694,13.694,0,0,0,8.591-7.209,14.323,14.323,0,0,0,.263-11.481c7.444-2.375,15.155-4.748,22.6-7.123" transform="translate(79.479 36.827)"/><path class="f" d="M128.194,92.432a11.187,11.187,0,0,1-1.607-.116,12.114,12.114,0,0,1-9.67-8.406.25.25,0,0,1,.48-.14,11.341,11.341,0,0,0,20.429,2.959.25.25,0,1,1,.421.27,11.8,11.8,0,0,1-5.069,4.327A12.016,12.016,0,0,1,128.194,92.432Z" transform="translate(102.801 73.567)"/><path class="f" d="M171.634,84.955a.25.25,0,0,1-.233-.16q-1.437-3.73-2.874-7.462-1.457-3.784-2.914-7.567a.25.25,0,0,1,.467-.18q1.458,3.783,2.914,7.567,1.437,3.731,2.874,7.462a.25.25,0,0,1-.233.34Z" transform="translate(145.525 61.139)"/><path class="f" d="M107.915,81.985h-.008a.25.25,0,0,1-.243-.257l.383-12.99a.25.25,0,1,1,.5.015l-.383,12.99A.25.25,0,0,1,107.915,81.985Z" transform="translate(94.692 60.322)"/><path class="f" d="M147.488,58.247q-.781,0-1.56-.058a22.876,22.876,0,0,1-19.156-14.111.25.25,0,0,1,.465-.183,21.872,21.872,0,0,0,39.291,2.92.25.25,0,1,1,.433.25,22.948,22.948,0,0,1-19.474,11.182Z" transform="translate(111.443 38.596)"/><path class="i" d="M119.036,249a29.736,29.736,0,0,1-15.947,27c-2.752,1.386-6.029,2.638-7.112,5.524l79.785.708c.079-11.3.237-22.648.315-33.948a237.936,237.936,0,0,0-57.041.715" transform="translate(84.217 216.65)"/><path class="f" d="M118.9,267.627a.25.25,0,0,1-.162-.06,22.044,22.044,0,0,0-18.869-4.629.25.25,0,0,1-.111-.487,22.557,22.557,0,0,1,19.231,4.674c8.809-.2,17.947-.615,26.784-1.019,8.873-.405,18.049-.824,26.9-1.022a.25.25,0,1,1,.011.5c-8.84.2-18.013.616-26.883,1.021s-18.047.824-26.891,1.021Z" transform="translate(87.587 230.044)"/><path class="i" d="M234.213,274.8a33.919,33.919,0,0,1-15.7-26.934c-20.091-4.228-41.687-3.124-61.474,2.349q2.326,16.934,4.654,33.866l82.256-.432c-1.138-4.365-5.9-6.475-9.737-8.849" transform="translate(137.798 215.237)"/><path class="f" d="M221.336,267.239h-.008c-10.384-.33-20.917-.627-31.1-.914s-20.714-.583-31.1-.913a.25.25,0,0,1,.016-.5c10.381.33,20.911.627,31.094.913,10.143.285,20.628.58,30.969.909a12.7,12.7,0,0,1,11.469-5.233.25.25,0,1,1-.052.5,12.249,12.249,0,0,0-11.083,5.131A.25.25,0,0,1,221.336,267.239Z" transform="translate(139.638 229.625)"/><path class="j" d="M206.639,380.249c22.008-.447,45.452-1.682,67.459-2.129-5.42-66.079-9.682-131.524-27.387-195.419-6.986-25.218-15.1-50.682-22.083-75.9-36.089-2.4-72.346-4.748-108.435-7.148A215.8,215.8,0,0,0,98.7,199.683c4,61.052,4.836,122.3,14.9,182.654,21.138.2,41.969.364,63.107.565.375-49.162.22-99.283.6-148.446,14.365,46.745,21.18,97.578,29.335,145.793" transform="translate(86.206 87.444)"/><path class="f" d="M140.115,194.409h0a.25.25,0,0,1-.249-.251c.044-14.144.091-28.216.137-41.825a.25.25,0,0,1,.114-.209c1.023-.662,2.235-1.532,3.407-2.374s2.377-1.707,3.4-2.372a.25.25,0,0,1,.272.42c-1.017.658-2.22,1.523-3.384,2.359-1.134.814-2.305,1.656-3.314,2.314-.046,13.567-.093,27.592-.137,41.689A.25.25,0,0,1,140.115,194.409Z" transform="translate(122.947 129.504)"/><path class="f" d="M218.671,110.369h-.015l-6.027-.355q-53.017-3.123-106.031-6.244a.25.25,0,1,1,.029-.5q53.015,3.12,106.031,6.244l6.027.355a.25.25,0,0,1-.014.5Z" transform="translate(93.549 90.836)"/><path class="f" d="M146.528,125.756c-1.089,0-2.237-.09-3.348-.177-1.169-.092-2.379-.187-3.5-.175a.25.25,0,0,1-.253-.25q0-4.858.007-9.718,0-4.937.008-9.874a.25.25,0,0,1,.25-.25h0a.25.25,0,0,1,.25.25q0,4.936-.008,9.873,0,4.733-.007,9.467c1.073,0,2.2.091,3.3.177s2.226.175,3.291.176c.434-3.232.773-6.382,1.1-9.43.336-3.119.683-6.345,1.132-9.659a.25.25,0,1,1,.5.067c-.448,3.308-.8,6.53-1.13,9.645s-.683,6.344-1.132,9.659a.25.25,0,0,1-.245.216Z" transform="translate(122.559 92.628)"/><path class="f" d="M117.384,377a.25.25,0,0,1-.248-.219c-3.968-32.134-7.093-63.632-9.288-93.621-2.358-32.218-3.727-63.835-4.069-93.973a427.985,427.985,0,0,1,7.591-85.142.25.25,0,0,1,.491.094,427.481,427.481,0,0,0-7.582,85.043c.668,58.841,5.035,120.185,13.353,187.539a.25.25,0,0,1-.217.279Z" transform="translate(91.259 91.335)"/><path class="f" d="M176.256,327.116a.25.25,0,0,1-.246-.208c-1.2-7.081-2.474-14.2-3.708-21.089-2.39-13.342-4.862-27.137-6.825-40.968A561.34,561.34,0,0,0,139.93,159.5a.25.25,0,0,1,.472-.164A561.841,561.841,0,0,1,165.972,264.78c1.962,13.822,4.433,27.613,6.822,40.95,1.234,6.888,2.51,14.011,3.709,21.094a.25.25,0,0,1-.2.288A.253.253,0,0,1,176.256,327.116Z" transform="translate(122.992 139.881)"/><path class="f" d="M105.7,134.5a.25.25,0,0,1-.051-.495,38.115,38.115,0,0,0,28.845-29.1.25.25,0,1,1,.49.1,36.085,36.085,0,0,1-3.763,10.253,39.49,39.49,0,0,1-15.25,15.384,36.091,36.091,0,0,1-10.22,3.854A.251.251,0,0,1,105.7,134.5Z" transform="translate(92.749 92.095)"/><path class="f" d="M179.517,134.653a.25.25,0,0,1-.076-.012,27.664,27.664,0,0,1-19.195-27.912.25.25,0,1,1,.5.029,27.093,27.093,0,0,0,18.847,27.406.25.25,0,0,1-.076.488Z" transform="translate(140.791 93.665)"/><path class="e" d="M93.019,196.264a170.238,170.238,0,0,0-4.042,29.583,8.587,8.587,0,0,1-3.359-1.08,7.373,7.373,0,0,0-3.07-.8,2.463,2.463,0,0,0-2.392,1.75c2.745,2.649,5.418,5.092,8.163,7.741a7.871,7.871,0,0,0,8.248,1.735,6.511,6.511,0,0,0,4.221,2.307,6.213,6.213,0,0,0,4.442-1.528,6.356,6.356,0,0,0,4.641,2.09,6.652,6.652,0,0,0,4.895-1.806c2.5,1.692,6.579.411,8.364-2.026,6.7-9.153,7.193-22.436,7.311-33.779,4.292-44.115,3.516-67.27,3.16-76.5l-1.849-45.987L101.5,71.97s-7.286,27.867-8.407,54.052-.073,70.242-.073,70.242" transform="translate(70.335 63.152)"/><path class="f" d="M84.762,157.07a.25.25,0,0,1-.249-.234l-.208-3.3a.25.25,0,0,1,.5-.032l.208,3.3a.25.25,0,0,1-.234.265Z" transform="translate(74.194 134.708)"/><path class="k" d="M135.379,25.655a.249.249,0,0,1-.188-.086,7.816,7.816,0,0,0-9.27-1.69.25.25,0,1,1-.237-.44,8.3,8.3,0,0,1,9.884,1.8.25.25,0,0,1-.188.414Z" transform="translate(110.388 19.993)"/><path class="k" d="M139.943,24.5a.25.25,0,0,1-.245-.3,7.7,7.7,0,0,1,6.779-5.922.25.25,0,1,1,.037.5,7.213,7.213,0,0,0-6.326,5.527A.25.25,0,0,1,139.943,24.5Z" transform="translate(122.796 16.252)"/><path class="b" d="M165.209,29.324a6.532,6.532,0,0,0-11.261-6.614,20.456,20.456,0,0,0-13.017,1.371,19.371,19.371,0,0,0-5.156,3.618,10.224,10.224,0,0,0-4.228-1,7.493,7.493,0,0,0-5.169,12.818,7.383,7.383,0,0,0,3.006,1.77,19.19,19.19,0,0,0,.173,4.5,17.537,17.537,0,0,0,23.219-3.832l11.742-4.234c1.855-2.161,2.345-6.079.691-8.394" transform="translate(108.968 17.226)"/><path class="e" d="M158.116,60.543c-.1-2.311,0-4.7-.1-7.014,6.368-2.758,6.808-7.463,6.539-12.14-.291-5.054-1.164-10.4-4.632-14.094a10.8,10.8,0,0,0-7.895-3.259,3.345,3.345,0,0,1-1.874,2.39,3.151,3.151,0,0,1-2.938-.03,5.474,5.474,0,0,1-3.4,2.585,5.719,5.719,0,0,1-4.326-.612c1.1,3.532-1.036,7.643-4.382,9.222-.55-.441-.931-.837-1.481-1.279a7.549,7.549,0,1,0,2.788,14.766c-.165,2.916-.214,5.394-.379,8.31A14.052,14.052,0,0,0,146.538,65.2a15.129,15.129,0,0,0,11.578-4.652" transform="translate(111.237 21.091)"/><path class="k" d="M139.48,28.589a.25.25,0,0,1-.158-.444,3.544,3.544,0,0,0,.906-4.164.25.25,0,1,1,.449-.221,4.038,4.038,0,0,1-1.039,4.772A.249.249,0,0,1,139.48,28.589Z" transform="translate(122.39 20.946)"/><path class="f" d="M138.718,32.254a1.284,1.284,0,1,0-1.284,1.284,1.284,1.284,0,0,0,1.284-1.284" transform="translate(119.468 27.175)"/><path class="g" d="M137.955,34.83a1.56,1.56,0,0,0,.881,1.525,2.271,2.271,0,0,0,2.018.006,1.566,1.566,0,0,0,.89-1.521Z" transform="translate(121.042 30.562)"/><path class="f" d="M146.453,31.046a1.284,1.284,0,1,0-1.284,1.284,1.284,1.284,0,0,0,1.284-1.284" transform="translate(126.255 26.115)"/><path class="f" d="M134.608,31.757a.25.25,0,0,1-.247-.291,4.727,4.727,0,0,1,7.7-2.848.25.25,0,1,1-.321.383,4.349,4.349,0,0,0-4.182-.725,4.293,4.293,0,0,0-2.7,3.272A.25.25,0,0,1,134.608,31.757Z" transform="translate(118.115 24.371)"/><path class="f" d="M142.47,28a.25.25,0,0,1-.084-.486l.765-.272q1.438-.512,2.875-1.025a.25.25,0,0,1,.168.471q-1.437.514-2.876,1.025l-.765.272A.25.25,0,0,1,142.47,28Z" transform="translate(125.013 23.208)"/><path class="f" d="M140.48,36.726a.25.25,0,0,1-.026-.5l1.132-.117.838-.087-.635-2.175q-.5-1.722-1.006-3.444a.25.25,0,0,1,.48-.14q.5,1.722,1.006,3.444l.719,2.462a.25.25,0,0,1-.214.319l-1.137.118-1.131.117Z" transform="translate(123.267 26.618)"/><path class="f" d="M132.785,34.3a.251.251,0,0,1-.054-.006l-2.152-.477-2.149-.476a.25.25,0,0,1,.108-.488l2.149.477,2.152.477a.25.25,0,0,1-.054.494Z" transform="translate(112.74 29.043)"/><path class="f" d="M143.076,42.2a19.986,19.986,0,0,1-8.123-1.8.25.25,0,0,1,.2-.457c5.365,2.393,11.008,2.342,15.482-.14a.25.25,0,0,1,.243.437A16,16,0,0,1,143.076,42.2Z" transform="translate(118.507 35.116)"/><path class="l" d="M275.052,243.6a44.366,44.366,0,0,1-8.918,28.787c-2.309,3.079-6.586,4.11-9.855,6.143a13.842,13.842,0,0,0-3.451,2.69,4.683,4.683,0,0,0-1.138,4.072l84.747-.383q.549-19.922,1.1-39.844c-20.615-.584-41.868-.884-62.482-1.466" transform="translate(220.749 213.755)"/><path class="f" d="M271.755,280.172a.25.25,0,0,1-.153-.052,17.87,17.87,0,0,0-17.763-2.149.25.25,0,1,1-.2-.457,18.313,18.313,0,0,1,18.152,2.118c15.3-7.067,27.941-19.115,34.7-33.074a.25.25,0,1,1,.45.218A67.084,67.084,0,0,1,292.3,266.433a75.981,75.981,0,0,1-9.683,7.689,77.743,77.743,0,0,1-10.762,6.027A.25.25,0,0,1,271.755,280.172Z" transform="translate(222.647 216.442)"/><path class="f" d="M264.608,251.26a.25.25,0,0,1,0-.5l.707,0q6.58-.024,13.16-.046h0a.25.25,0,0,1,0,.5q-6.58.021-13.16.046l-.707,0Z" transform="translate(232.186 220.211)"/><path class="f" d="M264.418,253.46a.25.25,0,0,1-.01-.5l12.568-.535a.25.25,0,1,1,.021.5l-12.568.535Z" transform="translate(232.019 221.715)"/><path class="f" d="M263.9,255.312a.25.25,0,0,1-.007-.5l12.547-.332a.25.25,0,0,1,.013.5l-12.547.332Z" transform="translate(231.569 223.518)"/><path class="l" d="M320.081,248.963c2.1,9.609-1.5,20.5-8.559,27.347-2.184,2.12-5.544,3.344-7.9,5.274-1.639,1.344-3.346,3.182-2.968,5.266l77.926-1.093q.4-21.682.807-43.364a308.635,308.635,0,0,1-59.307,6.569" transform="translate(263.77 212.694)"/><path class="f" d="M320.982,280.508a.25.25,0,0,1-.156-.054,18.046,18.046,0,0,0-18.17-2.3.25.25,0,0,1-.2-.457,18.565,18.565,0,0,1,18.574,2.279c14.245-5.312,25.788-19.238,28.094-33.914a.25.25,0,0,1,.494.078,39.908,39.908,0,0,1-3.454,10.958,46.92,46.92,0,0,1-6.365,9.873,47.962,47.962,0,0,1-8.59,8.047,42.043,42.043,0,0,1-10.137,5.476A.25.25,0,0,1,320.982,280.508Z" transform="translate(265.483 215.945)"/><path class="f" d="M313.148,251.327a.25.25,0,0,1-.005-.5l12.879-.276a.25.25,0,0,1,.011.5l-12.879.276Z" transform="translate(274.778 220.071)"/><path class="f" d="M325.017,253.311h-.007q-6.111-.163-12.218-.323a.25.25,0,0,1,.013-.5q6.108.16,12.219.323a.25.25,0,0,1-.007.5Z" transform="translate(274.471 221.77)"/><path class="f" d="M325.485,255.435h-.011l-6.629-.278-6.582-.276a.25.25,0,1,1,.021-.5l6.583.276,6.629.278a.25.25,0,0,1-.01.5Z" transform="translate(274.011 223.431)"/><path class="f" d="M401.34,234.139c-.834-47.547-1.714-86.9-2.548-134.444-44.6,1.111-89.867,2.891-134.47,4a625.8,625.8,0,0,0-6.539,109.141c1.5,54.03,3.548,107.617,5.473,161.631l71.789,1.716c.695-25.977,1.65-52.423,2.347-78.4,3.952,26.292,9.515,53.773,13.467,80.065,22.592-2.135,46.381-4.382,68.973-6.519a480.113,480.113,0,0,0-18.491-137.2" transform="translate(225.987 87.48)"/><path class="e" d="M306.475,247.387a.25.25,0,0,1-.035-.5l34.948-5.009,34.99-5.015a.25.25,0,0,1,.071.495l-34.99,5.015-34.948,5.009Z" transform="translate(268.923 208.06)"/><path class="e" d="M331.271,243.249h-.011q-34.591-1.459-69.182-2.922l-1.178-.05a.25.25,0,1,1,.021-.5l1.178.05q34.591,1.462,69.182,2.922a.25.25,0,0,1-.01.5Z" transform="translate(228.942 210.617)"/><path class="e" d="M309.757,274.641a.25.25,0,0,1-.244-.2q-3.022-14.518-6.042-29.037c-2.278-10.944-4.506-22.566-4.56-33.758-.092-18.556-1.436-37.525-2.735-55.869-.418-5.9-.85-12-1.233-17.982-.8-.81-1.7-1.751-2.566-2.662-.912-.954-1.855-1.941-2.682-2.78a.25.25,0,0,1,.356-.351c.829.841,1.774,1.83,2.687,2.785.893.935,1.817,1.9,2.626,2.723a.25.25,0,0,1,.071.159c.384,6.008.818,12.141,1.238,18.072,1.3,18.353,2.644,37.33,2.737,55.9.054,11.146,2.277,22.739,4.549,33.658Q306.979,259.82,310,274.34a.25.25,0,0,1-.245.3Z" transform="translate(254.355 115.982)"/><path class="e" d="M352.024,338.066a.25.25,0,0,1-.249-.227,708.18,708.18,0,0,0-20.589-113.881.25.25,0,0,1,.165-.3,5.021,5.021,0,0,0,3.353-5.249,4.456,4.456,0,0,0-1.878-2.874,6.625,6.625,0,0,0-3.394-1.351.25.25,0,0,1-.233-.247l-.732-91.136a.25.25,0,0,1,.248-.252h0a.25.25,0,0,1,.25.248l.73,90.91a7.14,7.14,0,0,1,3.432,1.432,4.944,4.944,0,0,1,2.071,3.211,5.566,5.566,0,0,1-3.471,5.708c4.963,18.809,9.2,37.764,12.579,56.34,3.509,19.263,6.189,38.574,7.965,57.4a.25.25,0,0,1-.225.272Z" transform="translate(288.44 107.751)"/><path class="i" d="M489.426,113.336c-4.072-13.707-15.542-23.951-26.651-32.953-16.011-12.977-35.42-20.876-54.492-28.686-5.9-2.416-11.762-4.174-17.661-6.59,1.8-4.791-.441-10.482-4.476-13.632s-9.462-4.063-14.558-3.562-10.365,2.3-15.172,4.061c-4.433-1.436-8.916-2.882-13.559-3.261s-9.538.4-13.347,3.085-6.284,7.512-5.351,12.078c-6.246,2.168-13.642,4.2-19.886,6.374a145.649,145.649,0,0,0-37.281,19.89c-11.58,8.434-23.316,16.621-32.351,27.738-10,12.309-10.6,31.01-4.741,45.746s16.642,26.891,27.21,38.715c11.265-8.569,22.973-17.222,34.238-25.791-.214,4.733-.819,10.212-1.033,14.945l132.829-2.12c9.861,9.517,15.882,14.693,25.744,24.21,13.137-11.657,26.615-23.694,35.5-38.843a53.04,53.04,0,0,0,5.032-41.4" transform="translate(198.442 24.38)"/><path class="f" d="M260.5,134.5l-.029,0a.25.25,0,0,1-.219-.277q2.724-23.448,5.449-46.9t5.452-46.917a.25.25,0,1,1,.5.058q-2.725,23.459-5.452,46.917t-5.449,46.9A.25.25,0,0,1,260.5,134.5Z" transform="translate(228.577 35.485)"/><path class="f" d="M333.281,132.8a.25.25,0,0,1-.249-.233l-5.987-90.119a.25.25,0,0,1,.5-.033l5.987,90.119a.25.25,0,0,1-.233.266Z" transform="translate(287.191 37.231)"/><path class="f" d="M301.766,37.69a.25.25,0,0,1-.121-.469l4.072-2.244L312,31.517a.25.25,0,1,1,.241.438l-6.279,3.46-4.072,2.244A.249.249,0,0,1,301.766,37.69Z" transform="translate(264.791 27.847)"/><path class="f" d="M312.491,43.506a33.186,33.186,0,0,1-11.156-1.961,33.021,33.021,0,0,1-10.876-6.486c-2.129.5-4.244.936-6.29,1.354-2.084.426-4.238.866-6.4,1.381a.25.25,0,0,1-.116-.486c2.172-.517,4.331-.958,6.419-1.385s4.238-.866,6.4-1.381a.25.25,0,0,1,.226.058,32.438,32.438,0,0,0,23.26,8.371c6.669-.323,14.486-2.408,23.233-6.2a.25.25,0,0,1,.158-.014l8.329,1.993.121.029a.25.25,0,0,1-.116.486l-.121-.029-8.248-1.974c-8.772,3.793-16.621,5.88-23.331,6.205Q313.239,43.506,312.491,43.506Z" transform="translate(243.681 30.523)"/><path class="f" d="M0,20.887l-.036,0A.25.25,0,0,1-.247,20.6L2.728-.036a.25.25,0,0,1,.283-.212.25.25,0,0,1,.212.283L.247,20.673A.25.25,0,0,1,0,20.887Z" transform="translate(548.577 71.221)"/><path class="f" d="M296.891,58.329a.25.25,0,0,1-.25-.239q-.425-10.071-.849-20.142a.25.25,0,0,1,.5-.021q.422,10.071.849,20.141a.25.25,0,0,1-.239.26Z" transform="translate(259.769 33.289)"/><path class="f" d="M263.025,100.133a.25.25,0,0,1,0-.5l61.652-.6,62.5-.608h0a.25.25,0,0,1,0,.5l-62.5.608-61.652.6Z" transform="translate(230.797 86.585)"/><path class="f" d="M0,7.514a.25.25,0,0,1-.25-.25V0A.25.25,0,0,1,0-.25.25.25,0,0,1,.25,0V7.264A.25.25,0,0,1,0,7.514Z" transform="translate(501.747 186.963)"/><path class="f" d="M0,7.514a.25.25,0,0,1-.25-.25V0A.25.25,0,0,1,0-.25.25.25,0,0,1,.25,0V7.264A.25.25,0,0,1,0,7.514Z" transform="translate(513.414 186.302)"/><path class="f" d="M277.176,105.761a.25.25,0,0,1-.249-.232q-.111-1.5-.222-3.008-.116-1.577-.233-3.154a.25.25,0,0,1,.5-.037q.117,1.577.233,3.155.111,1.5.222,3.007a.25.25,0,0,1-.231.268Z" transform="translate(242.816 87.176)"/><path class="f" d="M0,7.734a.25.25,0,0,1-.25-.25V0A.25.25,0,0,1,0-.25.25.25,0,0,1,.25,0V7.484A.25.25,0,0,1,0,7.734Z" transform="translate(537.849 186.522)"/><path class="f" d="M293.734,106.641h-.008a.25.25,0,0,1-.242-.257q.054-1.776.109-3.55.054-1.747.107-3.494a.25.25,0,1,1,.5.015q-.053,1.748-.107,3.494-.055,1.775-.109,3.55A.25.25,0,0,1,293.734,106.641Z" transform="translate(257.743 87.174)"/><path class="f" d="M297.021,105.761a.25.25,0,0,1-.25-.241q-.055-1.553-.11-3.106-.054-1.529-.108-3.058a.25.25,0,0,1,.5-.018q.054,1.529.108,3.058.055,1.553.11,3.106a.25.25,0,0,1-.241.259Z" transform="translate(260.436 87.174)"/><path class="f" d="M304.55,106.2h-.008a.25.25,0,0,1-.242-.258q.056-1.694.114-3.388.054-1.608.108-3.215a.25.25,0,1,1,.5.017q-.054,1.607-.108,3.215-.057,1.694-.114,3.388A.25.25,0,0,1,304.55,106.2Z" transform="translate(267.234 87.175)"/><path class="f" d="M0,7.734a.25.25,0,0,1-.25-.25V0A.25.25,0,0,1,0-.25.25.25,0,0,1,.25,0V7.484A.25.25,0,0,1,0,7.734Z" transform="translate(582.315 185.862)"/><path class="f" d="M313.135,106.733a.25.25,0,0,1-.249-.236q-.107-1.84-.214-3.68-.111-1.9-.221-3.805a.25.25,0,1,1,.5-.029q.11,1.9.221,3.805.107,1.84.214,3.68a.25.25,0,0,1-.235.264Z" transform="translate(274.385 86.868)"/><path class="f" d="M0,7.294a.25.25,0,0,1-.25-.25V0A.25.25,0,0,1,0-.25.25.25,0,0,1,.25,0V7.044A.25.25,0,0,1,0,7.294Z" transform="translate(598.825 185.862)"/><path class="f" d="M324.274,106.6a.25.25,0,0,1-.25-.244l-.186-7.705a.25.25,0,0,1,.5-.012l.186,7.705a.25.25,0,0,1-.244.256Z" transform="translate(284.378 86.558)"/><path class="f" d="M283.277,124.653a.25.25,0,0,1-.225-.14q-7.883-16.028-15.764-32.056l-7.564-15.382a22.5,22.5,0,0,0-18.7-12.29.25.25,0,0,1,.041-.5,24.426,24.426,0,0,1,11.255,3.775,22.134,22.134,0,0,1,7.853,8.793l7.564,15.382q7.882,16.028,15.764,32.056a.25.25,0,0,1-.224.36Z" transform="translate(211.51 56.629)"/><path class="f" d="M237.591,118.183a.25.25,0,0,1-.15-.45l20.511-15.4,19.733-14.813a.25.25,0,0,1,.3.4l-19.733,14.813-20.511,15.4A.249.249,0,0,1,237.591,118.183Z" transform="translate(208.479 76.974)"/><path class="f" d="M246.311,110.016a.25.25,0,0,1-.2-.1l-2.854-3.968-2.854-3.968a.25.25,0,0,1,.406-.292l2.854,3.968,2.854,3.968a.25.25,0,0,1-.2.4Z" transform="translate(211.122 89.353)"/><path class="f" d="M248.721,108.1a.25.25,0,0,1-.21-.113l-5.3-8.131a.25.25,0,0,1,.419-.273l5.3,8.131a.25.25,0,0,1-.209.387Z" transform="translate(213.591 87.5)"/><path class="f" d="M254.615,102.639a.25.25,0,0,1-.213-.119q-1.655-2.7-3.312-5.39l-1.294-2.1a.25.25,0,0,1,.426-.262l1.294,2.1q1.657,2.695,3.312,5.39a.25.25,0,0,1-.213.381Z" transform="translate(219.376 83.267)"/><path class="f" d="M259.1,100.269a.25.25,0,0,1-.214-.121l-5.047-8.375a.25.25,0,1,1,.428-.258l5.047,8.375a.25.25,0,0,1-.214.379Z" transform="translate(222.928 80.415)"/><path class="f" d="M261.2,99.338a.25.25,0,0,1-.221-.133q-2.447-4.61-4.891-9.22a.25.25,0,1,1,.442-.234q2.444,4.61,4.891,9.22a.25.25,0,0,1-.221.367Z" transform="translate(224.904 78.857)"/><path class="f" d="M327.093,123.972a.25.25,0,0,1-.214-.379l7.9-13.189q10.585-17.671,21.171-35.342c3.537-5.9,10.566-9.126,20.893-9.574a.25.25,0,0,1,.022.5c-10.149.441-17.041,3.58-20.486,9.332q-10.586,17.67-21.171,35.342l-7.9,13.189A.25.25,0,0,1,327.093,123.972Z" transform="translate(287.015 57.683)"/><path class="f" d="M367.675,128.538a.249.249,0,0,1-.185-.082q-11.579-12.784-23.159-25.565l-12.411-13.7a.25.25,0,1,1,.371-.336l12.411,13.7q11.58,12.782,23.159,25.565a.25.25,0,0,1-.185.418Z" transform="translate(291.412 78.115)"/><path class="f" d="M330.558,101.3a.25.25,0,0,1-.2-.395q3.427-4.83,6.858-9.662a.25.25,0,1,1,.408.29q-3.43,4.83-6.858,9.661A.25.25,0,0,1,330.558,101.3Z" transform="translate(290.055 80.189)"/><path class="f" d="M332.083,103.251a.25.25,0,0,1-.19-.413l1.025-1.193q3.4-3.959,6.8-7.916a.25.25,0,1,1,.379.326q-3.4,3.957-6.8,7.916l-1.025,1.193A.249.249,0,0,1,332.083,103.251Z" transform="translate(291.393 82.387)"/><path class="f" d="M335.8,108.2a.25.25,0,0,1-.192-.411l1.061-1.267q3.531-4.216,7.062-8.435a.25.25,0,1,1,.383.321q-3.53,4.218-7.062,8.435l-1.061,1.267A.25.25,0,0,1,335.8,108.2Z" transform="translate(294.654 86.212)"/><path class="f" d="M337.852,109.9a.25.25,0,0,1-.2-.4l7.463-9.7a.25.25,0,1,1,.4.3l-7.463,9.7A.25.25,0,0,1,337.852,109.9Z" transform="translate(296.455 87.695)"/><path class="f" d="M341.623,113a.25.25,0,0,1-.174-.429q2.793-2.717,5.588-5.432l2.671-2.6a.25.25,0,0,1,.349.359l-2.671,2.6q-2.794,2.715-5.588,5.432A.249.249,0,0,1,341.623,113Z" transform="translate(299.764 91.894)"/><path class="f" d="M345.249,116.242a.25.25,0,0,1-.185-.418q3.613-3.977,7.23-7.955a.25.25,0,1,1,.37.336q-3.616,3.976-7.23,7.955A.249.249,0,0,1,345.249,116.242Z" transform="translate(302.946 94.799)"/><path class="e" d="M352.889,149.024a12.313,12.313,0,0,0-5-.817q9.3-8.86,18.6-17.72L336.838,96.654c-9.688,10.6-15.119,25.029-16.437,39.331A113.171,113.171,0,0,0,340.8,154.773c4.988-.456,10.45-1.033,15.438-1.489a5.235,5.235,0,0,0-3.346-4.26" transform="translate(281.143 84.811)"/><path class="f" d="M0,2.89a.25.25,0,0,1-.213-.119.25.25,0,0,1,.082-.344L4.163-.213a.25.25,0,0,1,.344.082.25.25,0,0,1-.082.344L.131,2.853A.249.249,0,0,1,0,2.89Z" transform="translate(626.273 232.6)"/><path class="e" d="M312.577,29.857,287.552,37.3a21.123,21.123,0,0,0,13.257,5.473,20.545,20.545,0,0,0,13.456-4.339q-.845-4.289-1.688-8.578" transform="translate(252.319 26.199)"/><path class="f" d="M299.226,15.784a.25.25,0,0,1-.206-.108,9.14,9.14,0,0,0-12.284-2.632.25.25,0,1,1-.26-.427,9.64,9.64,0,0,1,12.956,2.775.25.25,0,0,1-.206.392Z" transform="translate(251.488 10.062)"/><path class="f" d="M302.386,17.186a.25.25,0,0,1-.218-.372q.478-.858.954-1.718l.338-.61a.25.25,0,1,1,.437.242l-.338.609q-.476.86-.954,1.719A.25.25,0,0,1,302.386,17.186Z" transform="translate(265.335 12.818)"/><path class="f" d="M318.605,18.244A15.555,15.555,0,0,0,301.646,14a10.349,10.349,0,0,0-11.312-.237,10.533,10.533,0,0,0-4.568,10.467,5.656,5.656,0,0,0-1.412,7.255,5.659,5.659,0,0,0,7.112,2.015c-.034,2.091-.146,4.3-.18,6.393a5.289,5.289,0,0,0-5.024,1.408,5.5,5.5,0,0,0-1.269,5.174c1.414,4.992,6.393,8.61,11.441,9.806a18.647,18.647,0,0,0,14.83-2.859c3.3-2.322,6.182-5.657,7.176-9.568l2.5-8a16.015,16.015,0,0,0-2.33-17.611" transform="translate(248.853 10.701)"/><path class="e" d="M309.507,26.024a7.832,7.832,0,0,0-8.267-3.5l-1.294,14.4a7.616,7.616,0,0,0,9.56-10.906" transform="translate(263.195 19.604)"/><path class="f" d="M301.543,26.818a.25.25,0,0,1-.089-.484l2.374-.9,2.413-.916a.25.25,0,1,1,.178.467l-2.414.916-2.374.9A.25.25,0,0,1,301.543,26.818Z" transform="translate(264.595 21.718)"/><path class="e" d="M308.752,24.351a5.523,5.523,0,0,1-4.626-2.208,6.023,6.023,0,0,1-6.34-1.04,5.959,5.959,0,0,1-1.838-4.027c-4.675.914-9.222,4.339-9.487,8.944-.248,4.352-.235,8.681-.483,13.028q1.155.079,2.311.15a16.216,16.216,0,0,1,10.722-4.127,15.532,15.532,0,0,1,10.452,4.119c.479-4.4.965-8.76,1.444-13.159a5.1,5.1,0,0,0-.295-2.277,4.6,4.6,0,0,1-1.861.6" transform="translate(250.938 14.984)"/><path class="f" d="M293.135,24.264a.249.249,0,0,1-.177-.074,7.685,7.685,0,0,1-1.705-7.963.25.25,0,0,1,.468.177,7.214,7.214,0,0,0,1.592,7.433.25.25,0,0,1-.177.426Z" transform="translate(255.379 14.317)"/><path class="f" d="M290.413,24.5a1.284,1.284,0,1,0-1.284,1.284,1.284,1.284,0,0,0,1.284-1.284" transform="translate(252.576 20.37)"/><path class="f" d="M297.675,24.908a1.284,1.284,0,1,0-1.284,1.284,1.284,1.284,0,0,0,1.284-1.284" transform="translate(258.948 20.729)"/><path class="f" d="M286.967,23.183a.25.25,0,0,1-.239-.322,3.242,3.242,0,0,1,5.875-.741.25.25,0,1,1-.428.259,2.742,2.742,0,0,0-4.969.626A.25.25,0,0,1,286.967,23.183Z" transform="translate(251.805 18.26)"/><path class="f" d="M301.028,23.577a.25.25,0,0,1-.215-.122,4.135,4.135,0,0,0-6.921-.267.25.25,0,1,1-.408-.289,4.635,4.635,0,0,1,7.758.3.25.25,0,0,1-.214.378Z" transform="translate(257.704 18.597)"/><path class="f" d="M290.934,29.786a.25.25,0,0,1-.243-.309q.758-3.092,1.511-6.184a.25.25,0,0,1,.486.119q-.716,2.935-1.434,5.87l.811-.013,1.117-.018a.25.25,0,0,1,.008.5l-1.116.018-1.135.018Z" transform="translate(255.286 20.491)"/><path class="e" d="M294.789,30.109a2.314,2.314,0,0,1-2.232-1.89.25.25,0,0,1,.493-.08,1.752,1.752,0,0,0,3.477-.156.25.25,0,1,1,.5.036,2.309,2.309,0,0,1-2.146,2.089Z" transform="translate(256.927 24.569)"/><path class="e" d="M278.824,94.022l-36.461,25.89c4.258,5.032,8.079,10.578,12.335,15.609l-3.088,1.143a5.967,5.967,0,0,0-2.1,1.119,2.516,2.516,0,0,0-.742,2.416l6.492,1.053-3.068,1.038a5.549,5.549,0,0,0-2.182,1.125,2.245,2.245,0,0,0-.432,2.482c4.241.766,9.22,2.51,13.056.543,8.088-4.147,16.244-8.34,24.332-12.487a86.6,86.6,0,0,0-8.143-39.932" transform="translate(212.667 82.502)"/><path class="f" d="M254.211,122.791a.25.25,0,0,1-.193-.091l-1.876-2.284q-1.7-2.066-3.393-4.133a.25.25,0,0,1,.387-.317q1.7,2.067,3.393,4.133l1.876,2.284a.25.25,0,0,1-.193.409Z" transform="translate(218.44 101.896)"/></g></svg>